<svg id="Layer_1" data-name="Layer 1" xmlns="http://www.w3.org/2000/svg" viewBox="0 0 1080 1080"><defs><style>.cls-1{fill:#fff;}.cls-2{fill:#231f20;}</style></defs><rect class="cls-1" width="1080" height="1080"/><polygon class="cls-2" points="299.93 546.54 299.76 552.84 260.85 551.79 261 545.97 285.95 532.78 261.75 518.21 261.91 512.4 300.83 513.45 300.66 519.75 275.01 519.06 294.3 530.66 294.17 535.31 274.28 545.85 299.93 546.54"/><path class="cls-2" d="M287.68,476.84a20.26,20.26,0,0,1-11.79-9.75,19.48,19.48,0,0,1,17.23-28.27,21.69,21.69,0,0,1,6.75,1.11,20.24,20.24,0,0,1,11.78,9.76A19.46,19.46,0,0,1,294.43,478,21.31,21.31,0,0,1,287.68,476.84Zm6.86-5.33a12.8,12.8,0,0,0,12.39-8.81,12.53,12.53,0,0,0-.85-10,14.36,14.36,0,0,0-8.23-6.66,15.44,15.44,0,0,0-4.84-.8A12.76,12.76,0,0,0,280.64,454c-2.33,7,1.57,14.22,9.07,16.69A15.33,15.33,0,0,0,294.54,471.51Z"/><path class="cls-2" d="M336.16,413.15l-3.51,5.23-32.34-21.65,9-13.48c2.83-4.23,6.82-6.56,11.23-6.56a13.29,13.29,0,0,1,7.36,2.31,12.67,12.67,0,0,1,5.74,12.25L351,391l-4.24,6.35-15.52.24-5.67,8.48Zm-15.74-30.08c-2.34,0-4.54,1.44-6.36,4.16l-5.15,7.68,11.54,7.72,5.14-7.68a8.78,8.78,0,0,0,1.76-6.26,6.59,6.59,0,0,0-3-4.32A7,7,0,0,0,320.42,383.07Z"/><path class="cls-2" d="M366.44,325.88a13.71,13.71,0,0,1,10.29,4.84,13.88,13.88,0,0,1,3.65,10A15,15,0,0,1,375,351l-6.72,6,7.22,8.13-4.71,4.19-25.85-29.11,11.43-10.15A15.26,15.26,0,0,1,366.44,325.88ZM370.3,347c2.3-2,3.56-4.18,3.74-6.36A7.56,7.56,0,0,0,371.9,335a7.44,7.44,0,0,0-5.55-2.78c-2.12,0-4.32,1-6.56,3l-6.09,5.41,10.51,11.83Z"/><polygon class="cls-2" points="425.23 285.43 430.87 282.63 448.21 317.48 442.57 320.29 435.26 305.58 416.93 314.71 424.24 329.41 418.6 332.22 401.26 297.36 406.9 294.55 414.22 309.25 432.55 300.13 425.23 285.43"/><polygon class="cls-2" points="485.2 299.8 506.06 295.59 507.27 301.61 480.24 307.07 472.54 268.92 499.57 263.46 500.78 269.48 479.93 273.69 481.95 283.71 499.01 280.27 500.22 286.24 483.15 289.68 485.2 299.8"/><path class="cls-2" d="M565.1,285.18,566.42,262l6.29.35-1.34,23.45c-.52,9.13-6.82,15-16,15-.44,0-.88,0-1.33,0-10-.57-16.09-7.19-15.54-16.87l1.34-23.45,6.29.36L544.76,284c-.36,6.39,3.13,10.27,9.59,10.64l.92,0C561.17,294.69,564.75,291.22,565.1,285.18Z"/><path class="cls-2" d="M632.74,306.66c-1.49,4.52-5.2,7-10.45,7a22.64,22.64,0,0,1-7-1.24c-8.45-2.77-12.73-8.36-11.43-14.95l.19-1,6.42.28-.26,1.33c-1,4.88,3.3,7.38,7.07,8.62a14.69,14.69,0,0,0,4.5.82c1.79,0,4.08-.5,4.85-2.85,1-3-1.91-5.19-6.74-8.45l-.86-.58c-4.89-3.36-11.59-7.95-9-15.7,1.45-4.42,5.24-7,10.4-7a20.54,20.54,0,0,1,6.34,1.1c8.7,2.87,12.72,8.9,10.47,15.73l-.54,1.65-5.93-1.94.44-1.36a4.87,4.87,0,0,0-.78-4.83,11.67,11.67,0,0,0-5.61-3.48,13.43,13.43,0,0,0-4-.73c-2.44,0-4,1-4.64,2.93-1,3.15,1.7,5.22,6.64,8.6C628.86,294.88,635.18,299.21,632.74,306.66Z"/><polygon class="cls-2" points="721.49 358.38 706.46 344.5 695.32 356.56 690.69 352.28 717.1 323.69 721.72 327.96 710.59 340.02 725.62 353.91 736.76 341.85 741.38 346.12 714.98 374.71 710.35 370.44 721.49 358.38"/><path class="cls-2" d="M744.17,414.58c-2.55-4.17-3.44-8.48-2.56-12.48a15.72,15.72,0,0,1,7.53-9.93l20-12.3,3.3,5.37L752.66,397.4c-5.45,3.36-6.64,8.44-3.25,14,2.1,3.43,4.9,5.24,8.09,5.24a11.2,11.2,0,0,0,5.83-1.84l19.79-12.17,3.3,5.37-20,12.3a16.92,16.92,0,0,1-8.81,2.65C752.25,422.91,747.48,420,744.17,414.58Z"/><polygon class="cls-2" points="768.22 464.56 766.51 458.5 803.98 447.94 805.54 453.49 784.33 481.56 811.31 473.96 813.01 480.02 775.55 490.58 773.99 485.03 795.2 456.96 768.22 464.56"/><polygon class="cls-2" points="818.64 519.29 819.15 551 813.01 551.1 812.81 538.39 780.03 538.92 779.93 532.63 812.71 532.1 812.5 519.4 818.64 519.29"/><path class="cls-2" d="M319.68,656.7a18.94,18.94,0,0,1,14.78,30.79l-.73.92-4.88-4,.71-.89A12.64,12.64,0,0,0,330.65,669a12.47,12.47,0,0,0-10.72-5.95,15,15,0,0,0-7.77,2.27c-6.72,4.13-8.93,11.93-5.11,18.14a12.37,12.37,0,0,0,10.68,5.87,14.63,14.63,0,0,0,2.71-.26l1.13-.23,1.27,6.19-1.14.24a19.92,19.92,0,0,1-3.84.38A18.9,18.9,0,0,1,299.61,672a20.29,20.29,0,0,1,9.18-12.15A20.88,20.88,0,0,1,319.68,656.7Z"/><path class="cls-2" d="M359.74,706.56a19.62,19.62,0,0,1,19.36,19.31,21,21,0,0,1-20.4,20.47A19.63,19.63,0,0,1,339.36,727a21,21,0,0,1,20.38-20.47Zm-10.13,29.85a12.56,12.56,0,0,0,8.78,3.59,14.13,14.13,0,0,0,10.16-4.52,14.35,14.35,0,0,0,4.21-9.71,12.82,12.82,0,0,0-12.7-12.87,14.91,14.91,0,0,0-14.35,14.23A12.6,12.6,0,0,0,349.61,736.41Z"/><polygon class="cls-2" points="417.26 778.81 431.04 754.4 436.53 757.5 417.38 791.39 412.36 788.56 407.63 753.69 393.84 778.1 388.36 775 407.5 741.11 412.52 743.94 417.26 778.81"/><path class="cls-2" d="M474.56,770.68c8.83,2.47,13.11,8.31,11.17,15.25l-.47,1.67-6-1.69.39-1.37a5,5,0,0,0-.9-4.7,11.38,11.38,0,0,0-5.86-3.31,13.53,13.53,0,0,0-3.67-.57c-1.84,0-4.18.55-4.91,3.14-.9,3.2,1.93,5.14,7,8.3,6.3,3.92,12.81,8,10.7,15.51-1.35,4.83-5.22,7.49-10.89,7.49a23.22,23.22,0,0,1-6.27-.94c-8.57-2.4-13.09-7.8-12.09-14.43l.15-1h6.43l-.21,1.34c-.76,4.92,3.63,7.22,7.45,8.3a15.58,15.58,0,0,0,4.08.62c2,0,4.46-.53,5.17-3.07.86-3.07-2.14-5.09-7.11-8.14l-.88-.54c-5-3.14-11.93-7.43-9.73-15.29,1.32-4.71,5.26-7.42,10.81-7.42A20.86,20.86,0,0,1,474.56,770.68Z"/><path class="cls-2" d="M540.56,803.68l.84-23.22,6.3.24-.86,23.47c-.34,9.33-6.69,15.36-16.19,15.36l-.86,0c-5-.18-9.21-1.93-12-5A15.87,15.87,0,0,1,513.9,803l.86-23.48,6.29.23-.84,23.21c-.24,6.4,3.34,10.21,9.81,10.45h.59C536.71,813.39,540.33,809.85,540.56,803.68Z"/><polygon class="cls-2" points="587.97 808.9 607.68 805.05 608.85 811.08 582.97 816.13 575.51 777.92 581.69 776.72 587.97 808.9"/><polygon class="cls-2" points="647.05 762.64 635.27 767.39 647.53 797.8 641.69 800.15 629.42 769.75 617.64 774.5 615.35 768.81 644.75 756.95 647.05 762.64"/><rect class="cls-2" x="676.47" y="739.68" width="6.3" height="38.93" transform="translate(-301.46 484.09) rotate(-32.5)"/><polygon class="cls-2" points="714.76 705.38 719.29 701 746.37 728.98 742.22 732.99 707.44 727.63 726.94 747.78 722.41 752.16 695.34 724.19 699.48 720.17 734.26 725.53 714.76 705.38"/><path class="cls-2" d="M759.43,675.3l10.12-16.53L788,670.06l-3.15,5.15L781.19,673a15.52,15.52,0,0,1-2.07,12.58,18.11,18.11,0,0,1-15.72,8.9,21.48,21.48,0,0,1-11.17-3.27A20.41,20.41,0,0,1,743,679.05a18.92,18.92,0,0,1,2.29-14.73,18.45,18.45,0,0,1,16.07-8.94h1.34v6.34l-1.54,0a12.18,12.18,0,0,0-10.64,5.83c-3.81,6.23-1.61,14,5.13,18.15a15.28,15.28,0,0,0,8,2.36A12,12,0,0,0,774,682.17c3.06-5,2.09-10.72-2.43-14.81l-6.84,11.17Z"/><rect class="cls-2" x="415.73" y="535.91" width="23.44" height="7.73"/><polygon class="cls-2" points="565.53 543.64 568.68 535.91 500.78 535.91 490.61 535.91 473.04 535.91 473.04 543.64 493.75 543.64 503.93 543.64 565.53 543.64"/><polygon class="cls-2" points="661.18 535.91 661.18 543.64 588.17 543.64 591.32 535.91 661.18 535.91"/><polygon class="cls-2" points="532.08 637.89 533.3 640.91 537.85 640.91 542.4 640.91 543.63 637.89 544.09 636.76 579.61 549.42 581.95 543.64 585.09 535.91 587.44 530.13 608.44 478.47 608.44 530.13 630.76 530.13 630.76 428.99 643.39 428.99 643.39 424.58 620.24 424.58 618.45 428.99 618.45 428.99 618.45 428.99 574.93 535.91 571.77 543.64 569.42 549.42 545.46 608.3 540.98 619.29 538.65 625.03 538.6 625.15 538.57 625.08 537.85 626.82 537.14 625.08 537.1 625.15 537.05 625.03 534.71 619.27 530.25 608.3 506.29 549.42 496.1 549.42 531.61 636.76 532.08 637.89"/><polygon class="cls-2" points="608.44 549.42 608.44 650.56 597.85 650.56 597.85 654.97 640.61 654.97 640.61 650.56 630.76 650.56 630.76 549.42 608.44 549.42"/><polygon class="cls-2" points="433.46 428.99 444.94 428.99 444.94 535.91 444.94 543.64 444.94 650.56 433.63 650.56 433.63 654.97 476.39 654.97 476.39 650.56 467.26 650.56 467.26 543.64 467.26 535.91 467.26 478.47 488.27 530.13 498.42 530.13 457.26 428.99 455.47 424.58 455.46 424.58 433.46 424.58 433.46 428.99"/><polygon class="cls-2" points="415.73 631.52 427.94 631.52 427.94 635.93 385.17 635.93 385.17 631.52 397.37 631.52 397.37 448.02 385.17 448.02 385.17 443.62 427.94 443.62 427.94 448.02 415.73 448.02 415.73 631.52"/><rect class="cls-2" x="661.18" y="448.03" width="18.35" height="183.49"/><rect class="cls-2" x="648.91" y="631.53" width="42.76" height="4.41"/><rect class="cls-2" x="648.91" y="443.62" width="42.76" height="4.41"/><polygon class="cls-2" points="807.92 591.01 798.46 595.98 789 591.01 790.81 601.54 783.16 609 793.73 610.54 798.46 620.12 803.19 610.54 813.76 609 806.11 601.54 807.92 591.01"/><polygon class="cls-2" points="293.2 591.01 283.74 595.98 274.28 591.01 276.09 601.54 268.44 609 279.01 610.54 283.74 620.12 288.47 610.54 299.05 609 291.39 601.54 293.2 591.01"/></svg>