<?xml version="1.0" encoding="utf-8"?>
<!-- Generator: Adobe Illustrator 24.1.3, SVG Export Plug-In . SVG Version: 6.00 Build 0)  -->
<svg version="1.1" id="Layer_1" xmlns="http://www.w3.org/2000/svg" xmlns:xlink="http://www.w3.org/1999/xlink" x="0px" y="0px"
	 viewBox="0 0 960 560" style="enable-background:new 0 0 960 560;" xml:space="preserve">
<style type="text/css">
	.st0{fill:#84D3C7;}
	.st1{fill:#3662C1;}
	.st2{fill:#3A49CD;}
	.st3{fill:#BED2FA;}
	.st4{fill:#93B3F4;}
	.st5{fill:#12123C;}
	.st6{fill:#1A165E;}
	.st7{fill:#0D0D38;}
	.st8{fill:#FC9290;}
	.st9{fill:#EA8989;}
	.st10{fill:#98B7F5;}
	.st11{fill:#6D89CF;}
	.st12{fill:#FFFFFF;}
	.st13{fill:#52ADA2;}
	.st14{fill:#E1EBFD;}
	.st15{fill:#AC4949;}
	.st16{fill:#262267;}
	.st17{fill:#FDADAC;}
	.st18{fill:#15152A;}
	.st19{fill:#96B5F4;}
	.st20{fill:#F0807D;}
	.st21{fill:#ED6966;}
	.st22{fill:#060632;}
	.st23{fill:#A13934;}
	.st24{fill:#EB9090;}
	.st25{fill:#15115B;}
	.st26{fill:#E75755;}
	.st27{fill:#EE9C9C;}
	.st28{fill:#EA8888;}
	.st29{fill:#A83F3F;}
	.st30{fill:#0B0754;}
	.st31{fill:#211D63;}
	.st32{fill:#9E332E;}
	.st33{fill:#B25656;}
	.st34{fill:#567BCB;}
	.st35{fill:#FA7269;}
</style>
<g>
	<g>
		<path class="st0" d="M111.07,516.29c-123.11-110.78,6.38-398.6,208.27-281.14c27.17,18.05,105.52,2.23,172.21-103.96
			C582.5-13.62,897.75,74.21,840.27,297c-27.82,107.82,84.66,111.74,27.35,219.51L111.07,516.29z"/>
		<g>
			<g>
				<path class="st1" d="M625.44,464.93c5.02-5.39,7.29-17.73-9.66-18.69c0,0,6.47,10.84,4.37,11.92c-2.09,1.08-6.33-12.6-6.33-12.6
					s-12.73-1.23-16.83,0.73c0,0,10.89,8.91,8.59,9.44c-2.29,0.53-14.05-8.21-14.05-8.21s-11.85,2.02-11.22,9.25
					c0.63,7.23,4.72,9.46,6.51,9.27c1.8-0.19,12.3-4.2,12.52-2.73c0.23,1.47-6.09,6.28-10.52,6.5c0,0,8.36,9.22,13.91,6.56
					c5.55-2.66,6.03-6.88,9.49-8.46c3.46-1.58,6.42-1.58,4.99,0.04c-1.43,1.61-7.69,3.18-9.67,6.68c-1.98,3.5-3.76,5.86,1.99,5
					c5.75-0.86,15.09-5.07,15.5-9.88C625.44,464.93,625.44,464.93,625.44,464.93z"/>
				<g>
					<path class="st1" d="M586.14,456.96c0,0,32.19-1.24,39.3,7.97c0,0,1.57,4.71,6.41,9l0.75,2.05c0,0-5.58-5.88-7.57-6.24
						C625.03,469.74,628.15,458.34,586.14,456.96z"/>
					<path class="st1" d="M631.85,473.93c0,0,6.91,5.11,7.39,14.24l-1.25,0.11c0,0-2.21-9.44-6.2-13.13
						C627.8,471.45,631.85,473.93,631.85,473.93z"/>
				</g>
			</g>
			<g>
				<path class="st2" d="M653.99,452.95c-7.79-3.95-15.37-16.76,3.12-24.76c0,0-2.77,14.72,0,15.07c2.77,0.35,1.9-16.63,1.9-16.63
					s13.68-6.58,19.05-6.06c0,0-8.49,14.37-5.71,14.03c2.77-0.35,12.3-14.89,12.3-14.89s14.03-2.6,16.28,5.72
					c2.25,8.31-1.39,12.47-3.46,12.99c-2.08,0.52-15.41,0.35-15.07,2.08c0.35,1.73,9.35,4.5,14.37,2.94c0,0-5.54,13.68-12.81,12.99
					c-7.27-0.69-9.52-5.2-14.03-5.54c-4.5-0.35-7.79,0.87-5.54,2.08c2.25,1.21,9.87,0.4,13.51,3.49c3.64,3.09,6.58,5-0.17,6.38
					c-6.75,1.39-18.88,0.52-21.3-4.68C653.99,452.95,653.99,452.95,653.99,452.95z"/>
				<g>
					<path class="st2" d="M694.51,428.01c0,0-36.37,11.78-40.52,24.94c0,0,0.17,5.89-3.46,12.64v2.6c0,0,3.81-8.83,5.89-10.04
						C656.41,458.14,648.27,446.72,694.51,428.01z"/>
					<path class="st2" d="M650.53,465.59c0,0-5.61,8.52-2.41,18.88l1.44-0.39c0,0-1.4-11.42,1.53-17.16
						C654.03,461.18,650.53,465.59,650.53,465.59z"/>
				</g>
			</g>
			<g>
				<path class="st3" d="M633.33,442.92c10.27-5.21,20.26-22.1-4.11-32.64c0,0,3.65,19.4,0,19.86c-3.65,0.46-2.51-21.91-2.51-21.91
					s-18.03-8.67-25.11-7.99c0,0,11.19,18.95,7.53,18.49c-3.65-0.46-16.21-19.63-16.21-19.63s-18.49-3.42-21.46,7.53
					c-2.97,10.96,1.83,16.44,4.57,17.12c2.74,0.69,20.32,0.46,19.86,2.74c-0.46,2.28-12.33,5.94-18.95,3.88
					c0,0,7.3,18.03,16.89,17.12c9.59-0.91,12.56-6.85,18.49-7.3c5.94-0.46,10.27,1.14,7.3,2.74c-2.97,1.6-13.01,0.52-17.81,4.6
					c-4.79,4.08-8.67,6.59,0.23,8.41c8.9,1.83,24.88,0.69,28.08-6.16C633.33,442.92,633.33,442.92,633.33,442.92z"/>
				<g>
					<path class="st2" d="M579.91,410.05c0,0,47.94,15.52,53.42,32.87c0,0-0.23,7.76,4.57,16.66v3.42c0,0-5.02-11.64-7.76-13.24
						C630.13,449.77,640.86,434.7,579.91,410.05z"/>
					<path class="st2" d="M637.89,459.58c0,0,7.39,11.23,3.18,24.89l-1.9-0.51c0,0,1.85-15.05-2.02-22.62
						C633.28,453.77,637.89,459.58,637.89,459.58z"/>
				</g>
			</g>
			<path class="st4" d="M634.24,514.11c18.52,0,33.54-15.01,33.54-33.54h-67.07C600.71,499.09,615.72,514.11,634.24,514.11z"/>
			<path class="st3" d="M642.5,513.85c-19.81,2.6-37.85-13.27-37.7-33.28h8.33C613.13,497.68,625.94,511.8,642.5,513.85z"/>
			<path class="st4" d="M668.24,515.82h-68l0,0c0-2.29,1.85-4.14,4.14-4.14h59.72C666.39,511.68,668.24,513.53,668.24,515.82
				L668.24,515.82z"/>
			<rect x="599.6" y="480.57" class="st4" width="68.94" height="1.03"/>
		</g>
		<g>
			<path class="st5" d="M175.34,188.25c-0.1-0.52-1.32-6.13-10-5.17c0,0,4.32-0.11,5.32,1.65c-4.92-3.05-8.5,0.38-8.32,5.96
				c0.48,2.12,2.56,7.07,5.48,5.43c-3.76,6.29,0.36,16.82,4.08,15.01c1.8-0.76,2.79,2.35,2.79,2.35l16.03-17.34
				C190.73,196.14,182.05,183.31,175.34,188.25z"/>
			<path class="st6" d="M196.22,397.12l-3.9,1.45c-0.44,0.48-24.35-36.86-18.46-54.72c-2.85-16.36-6.61-37.81-9.7-54.19
				c0.26-0.08,11.82-3.81,12.42-4l2.35-7.46l8.46-2.23c4.14,10.66,6.84,50.76,2.1,68.73C187.05,358.58,196.25,397.12,196.22,397.12z
				"/>
			<path class="st7" d="M191.78,304.7l-18.38,36.54c-2.72-15.57-6.32-36.07-9.24-51.58c0.26-0.08,11.82-3.81,12.42-4l2.35-7.46
				l8.46-2.23c0,0,1.89,3.7,3.58,21.17C191.29,299.43,191.57,301.96,191.78,304.7z"/>
			<path class="st6" d="M183.7,280.66l-0.43-3.65c-7.13,1.89-26.17-5.29-26.17-5.29c-10.51,7.16-3.93,51.59-3.9,66.83
				c0.19,3.95,0.98,5.46,0.48,7.26c-12.43,17.12-2.62,57-1.84,55.83l2.48-1c0.37-0.78,6.13-36.84,11.99-48.75
				c7.27-13.88,9.89-36.11,12.49-51.88C179.02,300.02,183.7,280.66,183.7,280.66z"/>
			<path class="st8" d="M186.02,250.7c7.84,21.25,13.57,22.69,33.26,27.4l1.16-3.42c-2.67-1.61-16.49-10.79-17.35-12.84
				c-3.46-5.48-4.58-23.56-8.85-31.88c-1.53-2.69-3.66-0.63-5.75,0.97C183.02,235.99,183.32,243.26,186.02,250.7z"/>
			<path class="st8" d="M189.89,236.38c-13.05,8.41-23.95,0.33-25.7-11.71c2.77-1.35,4.24-1.11,6.62-1.27
				c1.37-0.99,3.49-5.14,4.12-11.66l0.56,0.17l9.35,2.84c-0.06,0.2-1.62,9.71-0.71,10.66c0.73,0.18,1.17,0.3,1.17,0.3
				C185.41,225.94,188.01,230.49,189.89,236.38z"/>
			<path class="st9" d="M184.83,214.75c0,0-0.52,2.98-0.81,5.81c-5.32-0.68-7.66-5.84-8.54-8.65L184.83,214.75z"/>
			<path class="st8" d="M186.34,217.61c0,0-12.65-1.06-11.87-8.92c0.78-7.87-0.33-13.3,7.78-12.96c8.11,0.34,9.38,3.5,9.76,6.19
				C192.39,204.6,189.65,217.68,186.34,217.61z"/>
			<path class="st10" d="M196.37,235.53c-2.37-7.16-1.9-7.32-11.09-9.81c0.13,0.3,3.5,7.97,2.94,9.8
				c-0.57,1.85-16.88-1.5-17.92-2.66c-0.93-1.16-1.74-7.1-2.03-9.32c0,0-5.9,0.06-8.96,1.84c2.94,5.39,5.6,9.25-1.4,14.62
				c0.47,3.63,1.59,9.55,1.84,16.01c0.08,7.68-10.61,16.26-7.61,23.87c0.75,4.47,39.44,4.87,37.92,0.06c0,0,1.71-28.23,3.82-35.29
				c0.87-2.82,0.35-5.85-0.38-8.35C194.51,235.88,195.61,235.65,196.37,235.53z"/>
			<path class="st5" d="M192.07,197.5c-1.71-2.56-3.24-2.19-4.14-1.56c-6.52-4.49-11.53,0.68-11.53,0.68
				c-1.41,5.56-5.8,8.39-5.8,8.39c0.49,1.04,9.28,2.17,12.2-1.72c-2.51,3.38-5.69,5.69-5.69,5.69c6.63-2.3,10.06-10.86,10.41-11.76
				c3.71,2.88,1.91,9.21,3.9,10.14C191.41,207.36,194.64,201.34,192.07,197.5z"/>
			<path class="st11" d="M178.53,272.22c-7.47,1-14.92-5.83-19.68-11.46c2.33-6.32-0.73-16.44-0.95-20.76
				c1.27-1.27,2.83-2.62,3.77-3.94C169.28,245.5,188.67,270.86,178.53,272.22z"/>
			<path class="st8" d="M231.05,279.67c-5.92,3.55-9.46-0.86-14.82-2.36l1.91-3.98c1.04,0.38,5.51,1.91,7.91,1.69
				c2.54-0.28,6.34,3.18,6.34,3.18S232.72,279.21,231.05,279.67z"/>
			<path class="st7" d="M166.26,403.67h-19.64c-1.16-5.25,3.06-7.06,2.71-11.07c1.25,1.28,3.28,2.72,6.12,2.34
				c0.35,0.56,2.25,3.58,3.41,4.42C160.14,400.28,165.86,399.95,166.26,403.67z"/>
			<path class="st7" d="M208.42,403.67h-19.64c-1.36-4.35,2.8-6.15,0.41-9.78c1.79,0.86,4.4,0.86,6.23-0.4
				c0.85,0.96,4.46,5.07,5.6,5.88C202.31,400.28,208.03,399.95,208.42,403.67z"/>
			<path class="st12" d="M183.32,213.06c0,0,0.18,1.04,2.74,1.04c0,0,2.15,0,2.16-1.13C188.22,212.97,186.19,212.04,183.32,213.06z"
				/>
			<path class="st8" d="M204.45,274.79c0,0,1.68-0.06,2.9-0.71c1.22-0.65,5.2,0.39,4.81,0.92c-0.38,0.53-2.61-0.12-2.82,0.18
				c-0.21,0.3-1.02,0.68-1.02,0.68L204.45,274.79z"/>
			<g>
				<path class="st13" d="M299.95,335.94h-66.32c-14.3,0-25.89-11.59-25.89-25.89v-66.32c0-14.3,11.59-25.89,25.89-25.89h66.32
					c14.3,0,25.89,11.59,25.89,25.89v66.32C325.84,324.35,314.25,335.94,299.95,335.94z"/>
				<path class="st14" d="M310.54,246.91v57.67c0.06,7.36-5.56,13.89-12.96,14.85c-0.66,0.09-1.34,0.14-2.03,0.14h-57.67
					c-6.5,0-12.03-4.14-14.11-9.92c-1.79,0.55-0.51-60.94-0.88-62.74c0-8.28,6.71-14.99,14.99-14.99h57.67
					C303.83,231.92,310.54,238.63,310.54,246.91z"/>
				<g>
					<path class="st8" d="M259.19,271.67c0,0-0.29,9.03-1.45,13.07l-9.15,6.38l34.42,5.15l-8.21-11.34c0,0-2.48-12.1-1.18-16.58
						C274.94,263.87,259.19,271.67,259.19,271.67z"/>
					<path class="st9" d="M259.14,272.92c2.38,6.76,11.78,9.76,14.14,0.47L259.14,272.92z"/>
					<path class="st15" d="M256.08,267.62c-0.44-7.34-11.17-22.51,7.88-25.02c0,0,4.91,0.58,7.61-1.06c0,0,0,1.64-0.67,2.21
						c14.98-1.34,6.53,15.99,5.87,23.3L256.08,267.62z"/>
					<path class="st8" d="M266.41,276.8c-3.72-0.07-10.55-5.01-10.55-11.14v-9.56c0-2.24,1.56-4.07,3.47-4.07h14.17
						c5.31-0.02,2.99,9.97,3.47,13.09C276.96,271.54,270.67,276.87,266.41,276.8z"/>
					<path class="st15" d="M255.85,261.2c0.1-13.1,17.35-1.74,20.75-8.02c1.44-4.19-19.68-4.12-20.75-1.44
						C254.79,254.41,255.85,261.2,255.85,261.2z"/>
					<path class="st16" d="M288,287.48c-0.94-0.35-1.5-0.41-1.48-0.4v0.02c-4.19-1.05-7.89-1.71-11.7-2.16
						c-6.97,9.52-12.59,6.34-17.07-0.19c-13.26,3.03-14.36-1.76-33.96,24.9c2.08,5.78,7.61,9.92,14.11,9.92h57.67
						c6.37,0.05,12.18-4.19,14.17-10.09C298.86,292.98,291.09,288.62,288,287.48z"/>
					<path class="st4" d="M258.23,282.55c0,0-1.53,0.64-1.96,2.37c0,0,6.13,6.31,10.14,6.4L258.23,282.55z"/>
					<path class="st4" d="M266.41,291.32l7.91-9.09c0,0,1.63,1.08,1.61,2.84C275.93,285.07,269.81,291.56,266.41,291.32z"/>
					<path class="st4" d="M269.95,319.56h-7.91c1.13-12.7,2.1-21.46,2.94-28.91c0.72-0.01,1.85-0.03,2.57-0.04
						C268.21,298.51,268.93,307.07,269.95,319.56z"/>
					<path class="st11" d="M263.4,288.09c-0.45,0.23,7.16-1.17,6.34,0.77C266.4,295.99,261.48,288.03,263.4,288.09z"/>
				</g>
			</g>
			<g>
				<path class="st8" d="M215.99,279.02c-3.52,5.34-10.41,0.08-14.67-0.73l1.67-4.09c1.08,0.38,5.48,0.26,8.12,1.67
					C214.01,277.41,217.21,277.36,215.99,279.02z"/>
				<path class="st8" d="M204.61,274.78l-0.7,3.85c-8.52-1-20.61-1.86-28.49-5.73c-8.35-6.29-18.44-26.3-19.57-38.34
					c1.48-1.29,4.89-3.71,9.53-3.46c5.14,8.85,9.39,21.92,14.71,30.82C185.72,267.14,197.6,271.5,204.61,274.78z"/>
				<path class="st10" d="M165.67,231.61c-5.79-1.07-9.78,3.73-9.78,3.73c-0.67-8.52,3.47-10.05,3.47-10.05
					C161,224.44,163.24,227.22,165.67,231.61z"/>
			</g>
		</g>
		<g>
			<path class="st13" d="M808.88,358.15h-86.1c-1.88,0-3.42-1.54-3.42-3.42v-10.45c0-1.88,1.54-3.42,3.42-3.42h86.1
				c1.88,0,3.42,1.54,3.42,3.42v10.45C812.3,356.61,810.76,358.15,808.88,358.15z"/>
			<g>
				<g>
					<g>
						<path class="st17" d="M741.88,358.15c0,0-1.1,10.12-1.1,10.12c-0.85,0.92-14.66,147.42-16.82,147.37
							c-4.35-0.23,12.61-150,11.3-151.82c0,0,0.48-5.66,0.48-5.66H741.88z"/>
					</g>
					<path class="st18" d="M741.88,358.15l-1.1,10.12c-0.76-4.03-5.52-4.45-5.52-4.45l0.48-5.67H741.88z"/>
				</g>
				<g>
					<g>
						<path class="st17" d="M807.7,515.63c-2.16,0.12-15.97-146.52-16.82-147.37c0,0-0.69-6.31-0.69-6.31s-0.41-3.81-0.41-3.81h6.14
							c0,0,0.48,5.67,0.48,5.67l0.38,4.45C795.49,370.06,812.02,515.43,807.7,515.63z"/>
					</g>
					<path class="st18" d="M796.77,368.26c-1.56-4.82-6.58-6.3-6.58-6.3s0,0,0,0l-0.41-3.81h6.14
						C796.13,360.64,796.57,365.79,796.77,368.26z"/>
				</g>
			</g>
		</g>
		<g>
			<path class="st13" d="M213.39,414.75h-87.47c-1.51,0-2.74-1.23-2.74-2.74c0.37-2.32-1.3-8.43,2.74-8.34c0,0,87.47,0,87.47,0
				c3.96-0.1,2.47,6.03,2.74,8.34C216.13,413.52,214.89,414.75,213.39,414.75z"/>
			<g>
				<g>
					<g>
						<path class="st17" d="M145.71,414.75l-1.1,6.48c-0.85,0.63-14.74,94.85-16.82,94.4c-0.82,0-1.46-0.54-1.37-1.17l12.68-96.09
							l0.48-3.63H145.71z"/>
					</g>
					<path class="st18" d="M145.71,414.75l-1.1,6.48c-0.76-2.58-5.52-2.85-5.52-2.85l0.48-3.63H145.71z"/>
				</g>
				<g>
					<g>
						<path class="st17" d="M211.53,515.63c-2.06,0.51-15.99-93.84-16.82-94.41c-0.24-1.43-0.86-5.06-1.1-6.48h6.14l0.48,3.63
							l0.38,2.85l12.3,93.24C212.98,515.09,212.35,515.63,211.53,515.63z"/>
					</g>
					<path class="st18" d="M200.6,421.22c-1.56-3.09-6.58-4.04-6.58-4.04s0,0,0,0l-0.42-2.44h6.14
						C199.95,416.34,200.39,419.64,200.6,421.22z"/>
				</g>
			</g>
		</g>
		<g>
			<path class="st13" d="M343.16,192.9h-67.02c-14.45,0-26.16-11.71-26.16-26.16V99.72c0-14.45,11.71-26.16,26.16-26.16h67.02
				c14.45,0,26.16,11.71,26.16,26.16v67.02C369.32,181.19,357.6,192.9,343.16,192.9z"/>
			<path class="st14" d="M353.86,102.94c-0.47,89.13,11.72,72.04-75.68,73.25c-7.39-1.09-12.92-7.55-12.88-14.97
				c0,0,0-58.28,0-58.28c0-8.36,6.78-15.14,15.14-15.14h58.27C347.08,87.79,353.86,94.57,353.86,102.94z"/>
			<g>
				<path class="st8" d="M304.62,124.78c0,0-0.26,7.93-1.27,11.49l-8.04,5.61l30.25,4.53l-7.21-9.97c0,0-2.18-10.64-1.04-14.57
					C318.46,117.93,304.62,124.78,304.62,124.78z"/>
				<path class="st9" d="M304.58,125.88c2.09,5.95,10.35,8.58,12.43,0.41L304.58,125.88z"/>
				<path class="st5" d="M301.89,121.21c-0.39-6.45-9.82-19.78,6.92-21.99c0,0,4.32,0.51,6.69-0.93c0,0,0,1.44-0.59,1.95
					c13.17-1.18,5.74,14.05,5.16,20.48L301.89,121.21z"/>
				<path class="st8" d="M320.24,111.09c-0.15,2.7,0.53,9.28-0.82,11.7h0c-2.24,4.83-7.78,8.67-12.63,4.92
					c-2.64-1.74-5.11-4.81-5.1-8.21c0.48-2.76-1.73-12,3.05-11.98c0,0,12.45,0,12.45,0C318.86,107.52,320.24,109.13,320.24,111.09z"
					/>
				<path class="st19" d="M328.64,138.33c0,0-7.1-1.53-10.28-1.9c-6.72,9.15-11.37,5.05-15-0.17c-13.05,3.4-14.82-2.06-36.13,32.46
					c2.24,4.01,6.25,6.89,10.96,7.59c2.07-1.79,6.52-5.65,10.01-8.68c-0.11,3.08,0.11,5.84,0.15,8.85h43.86
					c-0.3-3.82-0.43-8.02-0.63-11.46c3.94,3.42,8.12,7.06,12.09,10.49c4.74-1.63,8.44-5.58,9.72-10.5
					C338.32,139.11,328.64,138.33,328.64,138.33z"/>
				<path class="st5" d="M301.69,115.58c0.09-11.51,15.25-1.53,18.23-7.04c1.27-3.68-17.3-3.62-18.23-1.27
					C300.75,109.61,301.69,115.58,301.69,115.58z"/>
				<path class="st11" d="M293.54,176.35h-5.2c-0.04-3.22-0.29-6.24-0.12-9.52C289.3,168.6,291.15,171.64,293.54,176.35z"/>
				<path class="st5" d="M315.36,124.19v3.49c-3.06,2.11-5.43,2.1-8.57,0.02c-0.13-2.77-0.33-7.05,3.55-7.06
					C312.7,120.3,315.39,121.48,315.36,124.19z"/>
				<path class="st11" d="M344.18,175.34c-0.17,0.07-0.34,0.13-0.52,0.19c-3.98-3.45-8.17-7.09-12.13-10.52
					c0.46-0.32,4.22-2.84,6.64,1.41C339.86,169.39,342.56,173.15,344.18,175.34z"/>
				<path class="st5" d="M319.41,122.79c-4.15,9.02-13.74,8.06-17.36-0.99c0,0,2.96,2.52,4.92,1.27h8.22
					C315.19,123.07,317.34,124.3,319.41,122.79z"/>
				<path class="st8" d="M311.96,123.76c-0.9-0.02-2.61,0.29-2.7-1.07c0.63-0.59,3.27-0.7,3.79,0.17
					C313.05,122.86,312.81,123.76,311.96,123.76z"/>
			</g>
		</g>
		<g>
			<path class="st13" d="M485.93,190.47h-67.02c-14.45,0-26.16-11.71-26.16-26.16V97.29c0-14.45,11.71-26.16,26.16-26.16h67.02
				c14.45,0,26.16,11.71,26.16,26.16v67.02C512.09,178.75,500.38,190.47,485.93,190.47z"/>
			<path class="st14" d="M496.64,100.5c-1.01,86.94,13.41,72.37-73.42,73.41c-8.33,0.01-15.14-6.76-15.14-15.14c0,0,0-58.27,0-58.27
				c0-8.36,6.78-15.14,15.14-15.14h58.28C489.86,85.36,496.64,92.14,496.64,100.5z"/>
			<g>
				<path class="st5" d="M446.17,139.58c0,0-9.51-0.48-9.77-5.96c-0.27-5.49-8.12-9.49-5.85-13.89c2.79-5.4,0.25-10.59,3.77-14.23
					c3.88-4,8.78-1.83,11.37-4.16c2.59-2.33,7.31-4.48,11.98-1.6c4.66,2.88,8.22,1.33,11.29,4.1c3.39,3.06,2.1,6.92,4.9,9.02
					c2.56,1.92,1.52,7.17-0.64,11.43c-1.55,3.07,2.03,5.95-4.12,9.48c-2.56,1.47-2,5.17-9.78,5.81
					C455.81,139.87,448.21,138.23,446.17,139.58z"/>
				<path class="st20" d="M446.45,134.72c0,0-0.28,8.57-1.37,12.41l-8.68,6.06l32.69,4.89l-7.8-10.77c0,0-2.35-11.49-1.12-15.75
					C461.4,127.31,446.45,134.72,446.45,134.72z"/>
				<path class="st21" d="M446.4,135.9c2.26,6.42,11.18,9.27,13.43,0.44L446.4,135.9z"/>
				<path class="st20" d="M453.3,139.58c-3.53-0.06-10.02-4.76-10.02-10.58v-9.08c0-2.12,1.48-3.86,3.29-3.86h13.46
					c5.05-0.02,2.84,9.46,3.29,12.43C463.32,134.59,457.35,139.65,453.3,139.58z"/>
				<path class="st15" d="M472.4,149.49c-3.96-0.99-7.68-1.79-11.12-2.19c-7.25,9.87-12.29,5.45-16.21-0.18
					c-12.66,2.96-13.74-1.18-31.84,23.17c3.91,3.97,10.66,3.95,15.98,3.76c1.58,0,43.35,0,46.13,0c0-0.05,0-0.09-0.01-0.14
					c6.27,0.35,13.73-0.04,17.71-5.37C483.73,152.53,472.4,149.49,472.4,149.49z"/>
				<path class="st5" d="M443.28,123.61c0,0,2.45-7.47,10.47-6.31c8.02,1.17,8.72,2.88,9.57,4.87c0.85,1.99,2.5-7.27,2.5-7.27
					l-9.46-2.81c-1.55,0.46-12.79,0.63-13.1,5.14L443.28,123.61z"/>
				<path class="st5" d="M462.46,124.6c-0.93-1.42-4.87-0.69-6.29-0.86c-1.11,0-1.82,0.44-1.92,1.4c-0.71-0.18-1.41-0.09-1.89,0.03
					l0,0c-0.06-2.35-4.78-1.15-6.18-1.43c-1.58-0.02-2.78,1.15-2.42,2.73c0.48,2.41,3.25,2.72,4.64,2.72
					c2.17,0.24,3.69-1.3,3.97-3.67c0.46-0.12,1.17-0.23,1.88-0.04C454.13,131.24,465.03,129.88,462.46,124.6z M452.08,125.6
					c-0.66,3.11-2.12,3.67-5.29,3.16c-3.11-0.24-4-4.68-0.61-4.74c1.23,0.3,5.92-0.89,5.91,1.23
					C451.44,125.33,451.51,125.9,452.08,125.6C452.08,125.6,452.08,125.6,452.08,125.6z M462.58,126.41
					c-0.96,3.57-7.93,3.53-8.05-0.84c0.66,0.37,0.58-0.28,0-0.36c0.02-2.07,4.69-0.92,5.9-1.2
					C461.84,124,462.89,124.99,462.58,126.41z"/>
			</g>
		</g>
		<g>
			<path class="st13" d="M653.26,187.69l-78.01-9c-11.2-1.29-19.23-11.41-17.93-22.61l9-78.01c1.29-11.2,11.41-19.23,22.61-17.93
				l78.01,9c11.2,1.29,19.22,11.41,17.93,22.61l-9,78.01C674.58,180.95,664.46,188.98,653.26,187.69z"/>
			<path class="st14" d="M668.48,98.88c-0.83,3.15-6.05,63.71-8.8,64.06v0c-3,4.97-8.86,7.84-14.65,7.13
				c-3.6-0.4-26.43-3.06-29.4-3.39c-1.06-0.07-17.51-2.06-17.9-2.07c-8.59-0.87-19.49-1-22.91-10.6
				c-3.32-2.47,5.81-60.89,5.68-65.29c0.96-8.31,8.47-14.27,16.78-13.31l57.89,6.67C663.48,83.06,669.44,90.57,668.48,98.88z"/>
			<g>
				<path class="st22" d="M643.97,112.24c-1.11-8.85,0.6-13.16-5.29-16.89c-2.56-6.21-7.53-7.27-12.59-6.46
					c0.51-0.63,1.6-0.93,1.6-0.93c-1.37-0.09-4.28,1.51-4.28,1.51c-19.44-5.67-20.07,22.31-19.13,28.72
					c0.94,6.41-5.61,9.08-14.98,14.98c-8.51,5.36-13.1,11.14-15.56,15.73c0.05,1.44,0.3,2.83,0.73,4.15
					c0.31-0.28,0.61-0.49,0.92-0.6c-0.02,0.06-0.25,0.69-0.56,1.58c3.44,9.6,14.29,9.73,22.91,10.6c0.37,0.04,16.86,1.95,17.9,2.07
					c5.5-7.81,13.12-17.18,19.33-23.17c6.52-4.15,7.03-12.52,7.32-17.12c-0.1,5.82-0.33,8.31-1.57,12.02
					C645.93,132.1,645.53,122.38,643.97,112.24z"/>
				<path class="st8" d="M636.1,141.57c-6.99,2.86-14.36,1.58-17.13-6.88c1.87-0.15,2.68-2.6,3.89-13.39l0.81,0.26l13.56,4.35
					C637.19,126.06,634.47,140.66,636.1,141.57z"/>
				<path class="st23" d="M618.84,95.61c0,0,6.25-7.89,15.46-1.68C634.3,93.93,629.21,93.48,618.84,95.61z"/>
				<path class="st24" d="M637.23,125.91c0,0-0.82,4.33-1.3,8.45c-7.74-1.11-11.03-8.67-12.26-12.8L637.23,125.91z"/>
				<path class="st8" d="M639.41,128.39c0,0-18.41,1.86-19.39-9.62c-0.98-11.48-4.02-18.97,7.7-20.65
					c11.71-1.67,14.37,2.51,15.63,6.27C644.6,108.14,644.17,127.61,639.41,128.39z"/>
				<path class="st22" d="M636.08,97.13c-2.08,8.38-9.52,21.18-22.6,17.39c0,0,5.54-5.22,6.08-13.56
					C619.56,100.96,631.74,91.04,636.08,97.13z"/>
				<path class="st22" d="M634.93,98.33c7.46,4.09,5.7,13.22,9.01,14.01c0,0,3.03-9.48-1.68-14.3
					C637.26,92.94,634.93,98.33,634.93,98.33z"/>
				<path class="st23" d="M651.86,140.67c-3.05-3.76-10.7-4.66-15.68-4.89c-0.21-0.3-0.31-0.45-0.37-0.52
					c-7.94,0.24-29.44-5.4-36.21,2.68c-3.23,4.99-0.38,18.68-1.86,26.69c4.81,0.56,18.05,2.08,22.75,2.62c0,0,24.54,2.83,24.54,2.83
					c0.55,0.06,1.09,0.1,1.63,0.1c5.29,0.06,10.29-2.75,13.02-7.23C657.32,153.29,654.37,143.82,651.86,140.67z"/>
			</g>
		</g>
		<g>
			<path class="st13" d="M658.34,336.34h-66.98c-14.44,0-26.14-11.71-26.14-26.14v-66.98c0-14.44,11.71-26.14,26.14-26.14h66.98
				c14.44,0,26.14,11.71,26.14,26.14v66.98C684.48,324.63,672.78,336.34,658.34,336.34z"/>
			<path class="st14" d="M669.04,246.42v58.24c0.06,7.89-6.31,14.77-14.39,15.11c-1.56,0.07-58.02,0.01-59.59,0.01
				c-6.6-0.26-12.11-4.75-13.91-10.83c-1.36,0.79-0.29-61.14-0.62-62.53c0-8.36,6.78-15.14,15.13-15.14h58.24
				C662.26,231.29,669.04,238.06,669.04,246.42z"/>
			<g>
				<path class="st8" d="M616.06,273.41c0,0-0.34,10.36-1.66,15l-10.49,7.32l39.5,5.91l-9.42-13.01c0,0-2.84-13.89-1.35-19.02
					C634.13,264.46,616.06,273.41,616.06,273.41z"/>
				<path class="st9" d="M616.01,274.84c2.73,7.76,13.51,11.2,16.23,0.53L616.01,274.84z"/>
				<path class="st5" d="M612.5,268.75c-0.5-8.43-12.82-25.83,9.04-28.71c0,0,5.64,0.66,8.73-1.21c0,0,0,1.88-0.77,2.54
					c17.19-1.54,7.5,18.34,6.74,26.74L612.5,268.75z"/>
				<path class="st8" d="M624.34,279.28c-4.26-0.08-12.11-5.75-12.11-12.78v-10.97c0-2.57,1.79-4.67,3.98-4.67h16.26
					c6.1-0.03,3.43,11.43,3.98,15.02C636.45,273.25,629.23,279.37,624.34,279.28z"/>
				<path class="st5" d="M612.23,261.39c0.11-15.03,19.91-2,23.8-9.2c1.66-4.81-22.58-4.72-23.8-1.66
					C611.01,253.6,612.23,261.39,612.23,261.39z"/>
				<path class="st11" d="M650.93,319.8c-0.33-0.01-55.3,0.01-55.59-0.01c1.4-12.66,4.4-27.93,6.8-28.94
					c2.17-0.84,8.18-2.1,12.26-2.45c4.78,6.67,10.84,11.91,19.59,0.22c5.02,0.59,9.98,1.54,15.12,2.92c0,0,0.04,0.17,0.13,1.16
					C649.45,294.95,649.95,301.43,650.93,319.8z"/>
				<g>
					<path class="st6" d="M602.58,290.66c-4.48,1.45-10.35,4.27-21.44,18.29c4.23,13.62,18.03,10.58,29.19,10.85
						c0.22-12.98,0.33-21.05,0.43-30.93C607.87,289.21,604.3,290.16,602.58,290.66z"/>
					<path class="st6" d="M649.11,291.54c-0.75-0.28-1.25-0.39-1.51-0.44c-1.95-0.49-6.36-1.55-9.89-1.98
						c0.06,9.38,0.17,19.4,0.31,30.68c11.46-0.42,26.09,3.21,30.43-10.94C658.91,296.37,652.1,292.64,649.11,291.54z"/>
				</g>
				<path class="st15" d="M634.63,260.86c-1.04-1.6-5.48-0.78-7.07-0.97c-1.25,0-2.04,0.5-2.16,1.57c-0.8-0.2-1.58-0.1-2.13,0.04
					l0,0c-0.07-2.64-5.37-1.3-6.95-1.61c-1.78-0.02-3.12,1.29-2.73,3.08c0.55,2.7,3.66,3.05,5.22,3.05
					c2.44,0.28,4.15-1.46,4.46-4.12c0.52-0.14,1.31-0.26,2.11-0.04C625.3,268.37,637.54,266.74,634.63,260.86z M622.96,261.99
					c-0.74,3.5-2.39,4.13-5.95,3.55c-3.49-0.27-4.5-5.26-0.68-5.33c1.38,0.33,6.65-1,6.64,1.38
					C622.24,261.69,622.3,262.32,622.96,261.99C622.96,261.99,622.96,261.99,622.96,261.99z M634.77,262.9
					c0.1,2.26-4.56,3.14-5.78,2.76c-1.69,0.09-3.02-1.73-3.28-3.7c0.76,0.42,0.65-0.32-0.01-0.4c0.03-2.33,5.28-1.03,6.64-1.35
					C633.94,260.19,635.12,261.3,634.77,262.9z"/>
			</g>
		</g>
		<g>
			<path class="st13" d="M466.38,350.68H388.7c-16.75,0-30.32-13.58-30.32-30.32v-77.68c0-16.75,13.58-30.32,30.32-30.32h77.68
				c16.75,0,30.32,13.58,30.32,30.32v77.68C496.7,337.11,483.13,350.68,466.38,350.68z"/>
			<path class="st14" d="M478.79,246.4v67.54c0,7.79-5.09,14.41-12.11,16.69c0.43,1.83-70.96,0.45-72.98,0.86
				c-9.69,0-17.55-7.86-17.55-17.55V246.4c0-9.69,7.86-17.55,17.55-17.55c0,0,67.54,0,67.54,0
				C470.93,228.85,478.79,236.71,478.79,246.4z"/>
			<g>
				<path class="st25" d="M428.04,246.75c-15.17-2.53-28.47,8.87-15.75,28.86c-0.87,10.26-5.07,10.26-5.07,10.26
					c0.78,0.36,3.22,1.79,4.27-0.3c0,0-0.26,1.12-0.59,1.48c6.45,0.65,12.85-0.8,16.09-10.4l5.39,0.38
					c0.06,2.32-0.77,4.97-3.36,7.73c0,0,6.64,0.65,8.89-1.19c0,0-0.44,0.9-0.85,1.3c0,0,7.43,0.27,10.49-2.05
					C450.63,280.51,448.66,242.51,428.04,246.75z"/>
				<path class="st8" d="M453.78,331.5h-52.59c-1.6-8.34-1.29-17.06,3.94-23.61c5.38-6.72,7.99-9.13,10.81-9.18
					c1.95-3.63,0.73-12.39,0.68-17.04c4.09-0.81,11.82-2.34,15.85-3.14c-0.22,5.36,1.51,17.18,5.16,19.13
					C443.85,298.91,452.97,314.55,453.78,331.5z"/>
				<path class="st26" d="M416.62,281.67c0,0,0.34,4.71,0.35,9.14c8.37-0.24,12.8-7.87,14.61-12.11L416.62,281.67z"/>
				<path class="st8" d="M413.83,285.87c0,0,19.81,0.33,19.82-12.01c0.01-12.34,2.58-20.61-10.07-21.34
					c-12.65-0.73-15.11,3.98-16.12,8.09C406.46,264.73,408.67,285.47,413.83,285.87z"/>
				<path class="st25" d="M414.56,252.22c2.97,8.76,12.07,21.74,25.68,16.53c0,0-6.38-5.07-7.71-13.93
					C432.53,254.82,418.65,245.33,414.56,252.22z"/>
				<path class="st25" d="M415.9,253.4c-7.61,5.06-4.89,14.63-8.35,15.76c0,0-4.09-9.84,0.51-15.41
					C412.92,247.85,415.9,253.4,415.9,253.4z"/>
				<path class="st25" d="M415.15,253.88c0,0,3.86,15.16,14.37,20.01c0,0-10.5-9.31-11.39-19.32
					C417.23,244.57,415.15,253.88,415.15,253.88z"/>
				<path class="st19" d="M465.25,324.01c-3.42-8.26-10.2-23.87-10.06-23.25c-1.02-1.73-14.97-3.44-17.02-3.43
					c-1.49,0-2.3-4.91-2.63-7.6c-0.67-2.12-2.72,0.3-3.88,0.7c-10.08,5.78-17.38,0.4-16.87,4.65c0.31,1.4,0.39,2.93-0.4,3.7
					c-3.54,0.79-12.17,2.99-13.78,6.06c-1.16,2.2-1.27,15.15-1.89,26.67c15.82-0.89,53.36,1.89,69.11-1.28
					C466.95,328.1,466.09,326.02,465.25,324.01z"/>
				<path class="st11" d="M446.29,331.5h-8.38C442.34,324.53,444.02,322.39,446.29,331.5z"/>
				<path class="st11" d="M438.18,297.33c0,0-10.45,6.62-18.35,5.05c0,0-1.9-1.2,0.72-2.4c2.46-1.13,8.17-4.47,6.92-7.76
					c2.17-0.71,4.41-1.75,6.53-3.19C436.6,287.31,435.52,297.16,438.18,297.33z"/>
			</g>
		</g>
		<g>
			<path class="st11" d="M546.57,333.73c0,0,15.91,16.27,16.68,22.54c0.77,6.27-7.67,16.09-7.67,16.09L546.57,333.73z"/>
			<path class="st22" d="M539.46,506.18c0,0-0.55,8.85-2.26,8.97c-4.98,0.05-14.54-0.02-19.47-0.05
				c0.25-4.72,10.12-2.42,13.57-10.08C533.31,500.63,539.46,506.18,539.46,506.18z"/>
			<path class="st22" d="M563.49,506.18c0,0-0.55,8.85-2.26,8.97c-4.98,0.05-14.54-0.02-19.47-0.05
				c0.25-4.72,10.12-2.43,13.57-10.08C557.34,500.63,563.49,506.18,563.49,506.18z"/>
			<path class="st22" d="M527.52,411.12c-2.42-0.68,27.78,95.91,25.31,95.99l11.29-0.32c0,0,0.1-35.01-4.76-51.12
				c-4.85-16.11-1.05-58.08-1.05-58.08L527.52,411.12z"/>
			<path class="st25" d="M522.02,398.58c-2.73-2.72,10.08,108.13,7.42,108.15l11.27,0.38c0,0,6.73-33.4,4.8-50.12
				c-1.93-16.71,9.22-57.35,9.22-57.35L522.02,398.58z"/>
			<path class="st8" d="M543.84,334.94l-6,3.94l-8.68-1.62c0.12-0.75,1.93-9.84,2.14-10.86c2.16-0.95,9.09-4.01,11.13-4.91
				C541.39,327.38,542.96,333.79,543.84,334.94z"/>
			<path class="st11" d="M531.38,332.95c0.17-0.07,10.45-3.11,11.57-2.74c1.12,0.37,1.78,2.53,1.78,2.53l-16.82,3.8
				C527.9,336.55,529.23,333.86,531.38,332.95z"/>
			<path class="st10" d="M559.06,401.94c-1.74,7.95-30.75,8.89-38.22,1.68c-2.49-10.3,2.62-33.18,2.15-42.8
				c-0.57-5.63,4.07-23.15,4.92-24.26c0,0,14.17-4.58,16.82-3.8C557.49,336.5,560.81,393.99,559.06,401.94z"/>
			<path class="st11" d="M520.27,393.8c1.67-15.45,2.09-30.55,3.96-44.04l8.52-1.5C532.75,348.26,541.08,382.29,520.27,393.8z"/>
			<path class="st8" d="M524.88,379.75c1.04,1.95-3.14,3.59-2.37,5.87c0.28,1.1,2.96,2.9,3.88,2.61c0.93-0.29,2.82-1.74,2.61-2.33
				c-0.2-0.58,1.27-5.11-0.99-6.85C525.75,377.31,524.88,379.75,524.88,379.75z"/>
			<path class="st10" d="M534.41,334.51c0,0-8.31,1.56-14.93,11.31c-6.62,9.76-10.98,17.02-9.76,20.53
				c1.22,3.52,12.34,15.72,14.26,15.72s5.01-1.39,5.18-4.53c0,0-7.83-11.73-6.29-13.49c0.66-0.75,10.16-8.47,11.52-4.98
				C536.64,364.83,534.41,334.51,534.41,334.51z"/>
			<path class="st27" d="M541.55,324.44c-1.78,3.02-8.41,5.62-11.18,6.58c0.38-1.89,0.95-4.74,0.93-4.62l8.1-3.58
				C541.19,322.8,542.28,323.2,541.55,324.44z"/>
			<path class="st8" d="M528.24,325.91c0,0,13.06,4.07,15.47-4.1c2.41-8.17,5.72-13.15-2.51-16.09c-8.23-2.95-10.78-0.31-12.25,2.22
				C527.48,310.48,524.91,324.64,528.24,325.91z"/>
			<path class="st25" d="M529.46,307.16c0,0,0.83,9.51,2.8,9.09c1.97-0.41,3.75-0.72,3.46,2.15c-0.29,2.87-1.62,7.42,4.43,7.93
				c6.06,0.51,13.38-16.36,11.71-19.32C547.06,298.47,522.51,296.74,529.46,307.16z"/>
		</g>
		<g>
			<path class="st8" d="M757.6,155.6c0,0-5.96,7.07-13.55,4.11c-1.52-2.18-1.89-10.76-1.82-13.01
				C761.91,138.4,748.79,143.64,757.6,155.6z"/>
			<path class="st28" d="M752.7,144.43c-1.09,2.01-4.81,5.95-10.32,7.39c-0.04-3.28-0.15-5.12-0.15-5.12
				C742.55,146.62,753.02,143.84,752.7,144.43z"/>
			<path class="st8" d="M739.88,146.36c0,0,12.66,2.98,14.39-4.94c1.73-7.91,4.53-12.86-3.48-15.09
				c-8.01-2.23-10.25,0.44-11.47,2.94C738.11,131.78,736.63,145.39,739.88,146.36z"/>
			<path class="st29" d="M753.83,143.58c0.17,0.11,2.9,0.95,8.05-9.33c3.81-8.5-5.69-13.28-14.67-14.75
				c-8.72-1.76-6.75,7.53-13.55,11.24c7.59,3.72,13.96-5.61,15.43,4.27c0.15,1.01,0.38,1.85,2.9,0.95c2.52-0.9,1.14,3.57,0.73,4.42
				C752.73,140.38,752.39,142.66,753.83,143.58z"/>
			<g>
				<path class="st5" d="M786.44,340.87c4.09-0.45,10.73,2.05,11.5-4.55c0.45-2.95,3.75-4.55,4.46-6.97
					c0.41-3.58-3.38-5.77-4.2-7.41l-6.07,1.43c-0.89,3.78,1.5,13.53-4.02,14.8C785.26,338.8,786.44,340.87,786.44,340.87z"/>
				<path class="st5" d="M733.08,340.87c0.42-0.12,20.4,0.23,20.75-0.12c1.44-0.85,0.9-6.23,0.72-7.95
					c-0.15-0.13-7.61-5.93-8.23-0.93C744.05,338.97,734.13,336.72,733.08,340.87z"/>
				<path class="st6" d="M737.18,223.71c2.17,23.88,6.65,90.31,8.17,107.43c0,0,3.39,3.39,10.18,1.96
					c6.49-8.42,12.38-107.16,11.96-111.27L737.18,223.71z"/>
				<path class="st7" d="M737.18,223.71c0,0,1.09,13.54,2.36,29.81l23.77,37.61c1.62-21.67,4.18-69.24,4.19-69.29L737.18,223.71z"/>
				<path class="st6" d="M742.13,225.32c-1.92,0.01,42.03,94.79,49.29,101.53c0,0,7.37-2.95,8.04-4.96c0,0-4.92-44.48-13.53-55.32
					c-9.4-11.6-11.92-39.27-12.59-50.1L742.13,225.32z"/>
			</g>
			<g>
				<path class="st8" d="M786.73,216.41l0.21,3.15c0,0-2.08,5.6,3.75,8.47c0,0,2.49,1.01,2.59-0.94c-0.05-2.82,0.54-8.87-2.7-10.13
					c0,0-1.48-1.71-1.48-1.71L786.73,216.41z"/>
				<path class="st30" d="M789.01,218.71c-2.16,0.69-2.51,0.54-2.51,0.54s-10.54-19.18-11.6-20.94
					c-1.07-1.76-22.37-21.51-22.37-21.51l5.47-20.41c11.69,16.12,32.71,36.65,33.7,60.59C791.7,216.98,790.71,218.16,789.01,218.71z
					"/>
			</g>
			<path class="st31" d="M733.05,184.81c0,10.83,2.88,41.27,4.26,47.83c9.42,0.94,25.51-0.75,35.4-7.76
				c3.02-1.5,2.08-3.12,1.53-6.26c-1.05-5.77-2.88-15.71-3.5-27.33c-0.75-12.64-3.87-33.1-13.64-39.44
				c-2.73,0.36-10.01,6.83-14.57,5.38C734.88,164.43,732.27,173.24,733.05,184.81z"/>
			<path class="st30" d="M733.05,184.81c0.08,4.42,0.35,9.56,0.71,14.54c16.26-10.18,18.77-28.8,18.77-28.8
				c-8,0.35-14.35,2.19-19.25,4.82C733.04,177.94,732.99,181.18,733.05,184.81z"/>
			<g>
				<path class="st28" d="M685,166.89l-2.96-1.52c0,0-1.91-6.3-9.05-5.4c0,0-2.9,0.59-1.69,2.4c1.95,2.53,5.49,8.33,9.23,7.52
					c0,0,2.48,0.65,2.48,0.65L685,166.89z"/>
				<path class="st31" d="M682.1,167.71c0.84-2.27,2.14-2.12,2.14-2.12c28.99,7.37,24.26,8.52,52.38-3.04
					c7.06-3.66,19.66-3.01,16.9,10.78c-1.07,4.24-4.65,7.37-8.99,7.93c-33.77,5.31-39.3,3.54-62.83-10.11
					C681.7,171.15,681.45,169.49,682.1,167.71z"/>
			</g>
		</g>
		<path class="st5" d="M341.06,348.35c0,0,0.69-7.49-7.68-7.49c0,0,2.54,0.69,3.85,2.06c0,0-5.34-3.13-11.15,1.68
			c-5.81,4.82-2.2,16.9-3.97,19.19c-23.62,12.15,12.18,22.43,12.68,33.01c0,0,8.23-12.1,2.35-17.62c0,0,2.87,2.7,3.16,5.91
			c0,0,0.78-6.27-3.21-8.27c-3.53-1.77-6.42-8.27-6.12-9.43C331.28,366.24,341.06,348.35,341.06,348.35z"/>
		<path class="st9" d="M333.46,383.6c-1.29-6.22-9.35-8.14-13.17-3.07c-5.15,7.65,9.3,37.7,10.7,41.67
			c2.94,4.74,20.26,20.98,20.26,20.98l3.19-1.94C337.97,414.16,339.18,421.23,333.46,383.6z"/>
		<path class="st32" d="M331.6,379.74c0,0,2.46,2.55,3.58,5.61c0,0-3.92,11.25-13.07,12.66
			C322.11,398.01,329.35,379.74,331.6,379.74z"/>
		<path class="st5" d="M338.69,347.29c0.11-0.46-9.92,4.53-10.43,5.1c-4.7,5.22-3.36,12.03-0.67,12.09
			c1.73,0.04,1.39,2.91,1.39,2.91l19.23-8.14C348.22,359.26,345.91,345.76,338.69,347.29z"/>
		<path class="st6" d="M317.55,510.37l-4.16-0.61c-1.79,0.03-18.34-19.92-16.32-39c-3.08-4.65-5.96-9.69-9.91-16.94
			c-7.37-13.79-20.95-34.65-16.26-42.43c0,0,17.91-1.77,22.82-6.07l1.77,2.73c0,0,3.88,17.18,3.7,17.26
			c3.3,10.09,7.02,22.37,9.09,32.68c1.08,5.42,1.65,10.13,1.34,13.35C309.63,482.28,317.68,510.29,317.55,510.37z"/>
		<path class="st7" d="M326.28,515.63h-17.37c-1.03-5.55,3.5-5.77,0.65-9.66c1.1,1.14,4.65,1.61,7.16,1.27
			c0.31,0.5,1.98,3.84,3.01,4.58C320.87,512.64,325.93,512.35,326.28,515.63z"/>
		<path class="st7" d="M299.75,427.09c-1.52,8.37-5.1,22.29-12.61,26.72c-7.36-13.76-20.95-34.68-16.26-42.43
			c0,0,17.91-1.77,22.82-6.07l1.77,2.73c0,0,3.88,17.18,3.7,17.26C299.36,425.89,299.56,426.49,299.75,427.09z"/>
		<path class="st6" d="M287.57,412.68l0.06-3.25c-6.47,0.82-22.31-7.73-22.31-7.73c-10.06,5.03-9.54,44.75-11.33,58.11
			c-0.3,3.48,0.21,4.9-0.44,6.42c-12.92,13.54-9.04,49.64-8.22,48.71l2.29-0.58c0.42-0.64,9.73-31.57,16.28-41.3
			c8.01-11.31,12.94-30.47,17.08-43.99C281.19,429.1,287.57,412.68,287.57,412.68z"/>
		<path class="st8" d="M325.44,391c-10.58-2.43-3.82-17.29-3.21-17.03c1.47-0.3,4.68-2.87,7.56-7.9l0.39,0.34l6.5,5.7
			c-0.12,0.14-4.84,7.23-4.46,8.33C332.75,380.85,328.26,391.65,325.44,391z"/>
		<path class="st9" d="M336.69,372.11c0,0-1.5,2.21-2.77,4.39c-4.04-2.49-4.04-7.49-3.73-10.08L336.69,372.11z"/>
		<path class="st8" d="M336.87,374.96c0,0-9.81-5.46-6.32-11.51c3.49-6.06,4.58-10.84,10.99-7.61c6.41,3.23,6.28,6.23,5.61,8.54
			C346.48,366.68,339.51,376.23,336.87,374.96z"/>
		<path class="st5" d="M348.81,360.85c-0.45-2.69-1.82-2.95-2.77-2.77c-3.62-5.99-9.54-3.65-9.54-3.65
			c-3.16,3.97-7.73,4.64-7.73,4.64c-0.09,0.96,6.81,5.15,10.45,3.06c-3.25,1.81-6.66,2.51-6.66,2.51
			c6.18,0.57,12.06-5.08,12.67-5.69c1.94,3.6-1.8,8.11-0.55,9.6C344.69,368.55,349.48,364.88,348.81,360.85z"/>
		<path class="st7" d="M259.15,515.63h-17.37c-1.03-4.55,2.7-6.26,2.39-9.79c1.1,1.14,2.9,2.41,5.41,2.07
			c0.31,0.5,1.99,3.17,3.01,3.91C253.74,512.64,258.8,512.35,259.15,515.63z"/>
		<path class="st33" d="M326.69,402.79c-5.82,2.51-17.98,0.62-22.02,4.75c-1.07,3.22-5.79,8.19-5.79,8.19
			c-30.24-1.38-33.56-14.02-33.56-14.02c20.34-23.66,54.79-30.5,54.79-30.5s2.46-1.04,8.66,3.88c4.13,3.29,3.59,4.55,3.59,4.55
			S333.26,400.49,326.69,402.79z"/>
		<path class="st32" d="M318.11,404.34c-4.57,0.5-9.28,0.84-11.75,1.82c-1.01-15.08,6.11-26.42,6.11-26.42
			S317.11,398.64,318.11,404.34z"/>
		<path class="st13" d="M447.16,515.16h-71.44c-15.4,0-27.88-12.48-27.88-27.88v-71.44c0-15.4,12.48-27.88,27.88-27.88h71.44
			c15.4,0,27.88,12.48,27.88,27.88v71.44C475.04,502.68,462.56,515.16,447.16,515.16z"/>
		<path class="st14" d="M458.57,419.27c-1.08,92.66,14.29,77.14-78.26,78.25c-8.93,0-16.14-7.25-16.14-16.14c0,0,0-62.11,0-62.11
			c0-8.91,7.23-16.14,16.14-16.14h62.11C451.34,403.13,458.57,410.36,458.57,419.27z"/>
		<g>
			<path class="st5" d="M399.21,449.89c0,0-9.01-16.35-0.75-23.57c8.27-7.22,22.83-2.91,25.5,0c2.68,2.91,6.25,11.19-1.15,22.97
				L399.21,449.89z"/>
			<path class="st20" d="M402.94,456.62c0,0-0.33,10.1-1.62,14.62l-10.23,7.13l38.5,5.76l-9.18-12.69c0,0-2.77-13.54-1.32-18.54
				C420.55,447.89,402.94,456.62,402.94,456.62z"/>
			<path class="st21" d="M402.89,458.01c2.66,7.57,13.17,10.92,15.82,0.52L402.89,458.01z"/>
			<path class="st20" d="M411.01,462.35c-4.15-0.07-11.8-5.61-11.8-12.46V439.2c0-2.5,1.74-4.55,3.88-4.55h15.85
				c5.94-0.03,3.34,11.14,3.88,14.64C422.81,456.47,415.78,462.43,411.01,462.35z"/>
			<path class="st34" d="M454.23,492.39c-2.95,3.16-7.15,5.14-11.81,5.14h-62.11c-4.79,0-9.09-2.09-12.05-5.4
				c18.09-21.89,19.59-18.14,33.1-21.02c4.77,6.55,10.46,11.76,19.01,0.11c4.05,0.47,8.55,1.41,13.2,2.58l0-0.02
				C433.57,473.77,441.46,475.75,454.23,492.39z"/>
			<path class="st5" d="M399.21,443.53c0,0,2.88-8.8,12.33-7.43c9.45,1.37,10.27,3.39,11.27,5.73c1,2.34,2.94-8.56,2.94-8.56
				l-11.15-3.31c0,0-13.49,1.53-14.46,3.8c-0.97,2.26-0.97,2.26-0.97,2.26L399.21,443.53z"/>
			<path class="st5" d="M410.24,426.5c0,0-9.99-9.08-5.7-11.01C408.82,413.55,410.24,426.5,410.24,426.5z"/>
			<path class="st5" d="M409.84,426.74c0,0-12.63-4.76-9.36-8.14C403.75,415.22,409.84,426.74,409.84,426.74z"/>
			<path class="st5" d="M410.66,427c0,0-2.07-11.71,2.92-11.62C418.58,415.47,410.66,427,410.66,427z"/>
			<path class="st5" d="M411.36,426.24c0,0,5.41-12.59,10.44-11.41C426.84,416,411.36,426.24,411.36,426.24z"/>
			<path class="st5" d="M411.08,427c0,0,8.61-10.66,13.14-8.17C428.75,421.33,411.08,427,411.08,427z"/>
		</g>
		<path class="st8" d="M322.81,376.83c0,0-11.44,1.13-12.36,8.57c-0.92,7.44,10.97,37.72,12.67,40.47
			c3.1,4.99,21.35,22.11,21.35,22.11l3.36-2.04c0,0-12.95-21.92-14.95-23.97C329.74,418.74,326.68,379.4,322.81,376.83z"/>
		<path class="st33" d="M310.78,389.87c0.03,0.17,10.56,3.44,17.34,0c0,0,1.45-15.64-6.64-14.79
			C307.97,376.2,305.93,382.65,310.78,389.87z"/>
		<path class="st8" d="M344.48,447.97c-1.39,4.72-0.63,8.52,3.36,12.1v-14.14L344.48,447.97z"/>
		<polygon class="st18" points="729.73,515.16 640.39,515.16 669.75,387.96 754.79,387.96 758.7,389.68 		"/>
		<polygon class="st12" points="725.43,515.16 636.08,515.16 665.45,387.96 754.79,387.96 		"/>
		<g>
			<path class="st3" d="M730.8,405.85c-1.14,0.82-44.38-1.95-43.27,1.66c-3.08,3.65,42.43,0.81,42.51,1.66
				C731.88,409.32,733.19,405.98,730.8,405.85z"/>
			<path class="st3" d="M729.92,414.67c-0.63,0.47-44.05-0.92-44.16,0.5c-0.34,1.45,43.53,0.02,43.92,0.51
				C730.24,415.73,730.65,414.71,729.92,414.67z"/>
			<path class="st3" d="M729.38,417c-0.63,0.48-44.05-0.93-44.16,0.51c-0.33,1.45,43.53,0.02,43.92,0.51
				C729.7,418.06,730.11,417.04,729.38,417z"/>
			<path class="st3" d="M670.64,409.16h11.14c1.84,0.16,3.14-3.18,0.76-3.31c0,0-11.14,0-11.14,0
				C669.56,405.69,668.26,409.02,670.64,409.16z"/>
			<path class="st3" d="M724.01,431.52c-1.15,0.82-44.38-1.95-43.27,1.66c-3.08,3.65,42.43,0.81,42.51,1.66
				C725.08,434.99,726.4,431.66,724.01,431.52z"/>
			<path class="st3" d="M723.13,440.35c-0.63,0.47-44.05-0.92-44.16,0.5c-0.33,1.45,43.53,0.02,43.92,0.51
				C723.44,441.41,723.86,440.39,723.13,440.35z"/>
			<path class="st3" d="M722.59,442.68c-0.63,0.47-44.05-0.92-44.16,0.5c-0.34,1.45,43.53,0.02,43.92,0.51
				C722.91,443.74,723.32,442.72,722.59,442.68z"/>
			<path class="st3" d="M663.85,434.84h11.14c1.85,0.16,3.14-3.18,0.76-3.31c0,0-11.14,0-11.14,0
				C662.77,431.36,661.47,434.7,663.85,434.84z"/>
			<path class="st3" d="M718.6,457.2c-1.14,0.82-44.38-1.95-43.27,1.66c-3.08,3.65,42.43,0.81,42.51,1.66
				C719.67,460.67,720.98,457.33,718.6,457.2z"/>
			<path class="st3" d="M717.71,466.02c-0.63,0.47-44.05-0.92-44.16,0.5c-0.34,1.45,43.53,0.02,43.92,0.51
				C718.03,467.08,718.45,466.07,717.71,466.02z"/>
			<path class="st3" d="M717.18,468.36c-0.63,0.47-44.05-0.92-44.16,0.5c-0.33,1.45,43.53,0.02,43.92,0.51
				C717.49,469.42,717.91,468.4,717.18,468.36z"/>
			<path class="st3" d="M658.43,460.51h11.14c1.84,0.16,3.14-3.18,0.76-3.31c0,0-11.14,0-11.14,0
				C657.35,457.04,656.06,460.38,658.43,460.51z"/>
			<path class="st3" d="M712.29,483.92c-1.14,0.82-44.38-1.95-43.27,1.66c-3.08,3.66,42.43,0.81,42.51,1.66
				C713.36,487.39,714.67,484.06,712.29,483.92z"/>
			<path class="st3" d="M711.4,492.75c-0.63,0.48-44.05-0.93-44.16,0.51c-0.34,1.45,43.53,0.02,43.92,0.51
				C711.72,493.81,712.13,492.79,711.4,492.75z"/>
			<path class="st3" d="M710.86,495.08c-0.63,0.47-44.05-0.92-44.16,0.5c-0.34,1.45,43.53,0.02,43.92,0.51
				C711.18,496.14,711.6,495.12,710.86,495.08z"/>
			<path class="st3" d="M664.03,483.92h-11.14c-1.85-0.16-3.14,3.18-0.76,3.31c0,0,11.14,0,11.14,0
				C665.11,487.39,666.4,484.06,664.03,483.92z"/>
		</g>
		<g>
			<path class="st4" d="M723.97,397.34h-34.62c-5.69-0.34-2.98-6.83-2.29-10.16h42.63C728.68,390.23,728.74,397.64,723.97,397.34z"
				/>
			<polygon class="st35" points="729.69,387.18 732.62,387.96 729.51,387.96 			"/>
		</g>
		<g>
			<g>
				<path class="st4" d="M750.13,512.21c0.01,1.62-1.36,2.97-2.96,2.96c0,0-83.31,0-83.31,0c-1.63,0-2.96-1.33-2.96-2.96
					c0-1.63,1.33-2.96,2.96-2.96c0,0,83.31,0,83.31,0C748.76,509.24,750.14,510.57,750.13,512.21z"/>
				<polygon class="st11" points="747.82,509.25 758.7,511.65 747.82,515.17 				"/>
			</g>
			<path class="st11" d="M682.22,509.25v5.92h-18.36c-1.63,0-2.96-1.33-2.96-2.96c0-1.63,1.33-2.96,2.96-2.96
				C663.87,509.25,682.22,509.25,682.22,509.25z"/>
		</g>
		<path class="st7" d="M925.64,517.38c-1.16-1.15-868.66,2.21-868.41-1.15l0,0c0.9-2.21,868.66-2.21,869.56,0l0,0
			C926.79,516.86,926.28,517.38,925.64,517.38z"/>
	</g>
</g>
</svg>
